<!-- Exported by Character Map UWP -->
<svg height="100%" viewBox="0 0 1024 1024" width="100%" xmlns="http://www.w3.org/2000/svg" xmlns:xlink="http://www.w3.org/1999/xlink">
  <path d="M479,664C512.667,677.333 543.333,695.083 571,717.25C598.667,739.417 622.333,764.833 642,793.5C661.667,822.167 676.917,853.333 687.75,887C698.583,920.667 704,955.667 704,992L704,1024L640,1024L640,992C640,952.333 632.417,915 617.25,880C602.083,845 581.5,814.5 555.5,788.5C529.5,762.5 499,741.917 464,726.75C429,711.583 391.667,704 352,704C312.333,704 275,711.583 240,726.75C205,741.917 174.5,762.5 148.5,788.5C122.5,814.5 101.917,845 86.75,880C71.5833,915 64,952.333 64,992L64,1024L0,1024L0,992C0,955.667 5.41667,920.667 16.25,887C27.0833,853.333 42.3333,822.167 62,793.5C81.6667,764.833 105.333,739.417 133,717.25C160.667,695.083 191.333,677.333 225,664C210,653.667 196.5,641.667 184.5,628C172.5,614.333 162.333,599.583 154,583.75C145.667,567.917 139.25,551.25 134.75,533.75C130.25,516.25 128,498.333 128,480C128,449 133.917,419.917 145.75,392.75C157.583,365.583 173.583,341.917 193.75,321.75C213.917,301.583 237.583,285.583 264.75,273.75C291.917,261.917 321,256 352,256C383,256 412.083,261.917 439.25,273.75C466.417,285.583 490.083,301.583 510.25,321.75C530.417,341.917 546.417,365.583 558.25,392.75C570.083,419.917 576,449 576,480C576,498.333 573.75,516.25 569.25,533.75C564.75,551.25 558.333,567.917 550,583.75C541.667,599.583 531.5,614.333 519.5,628C507.5,641.667 494,653.667 479,664ZM352,640C374,640 394.667,635.833 414,627.5C433.333,619.167 450.25,607.75 464.75,593.25C479.25,578.75 490.75,561.75 499.25,542.25C507.75,522.75 512,502 512,480C512,458 507.75,437.333 499.25,418C490.75,398.667 479.25,381.75 464.75,367.25C450.25,352.75 433.333,341.25 414,332.75C394.667,324.25 374,320 352,320C330,320 309.25,324.25 289.75,332.75C270.25,341.25 253.25,352.75 238.75,367.25C224.25,381.75 212.833,398.667 204.5,418C196.167,437.333 192,458 192,480C192,502 196.167,522.75 204.5,542.25C212.833,561.75 224.25,578.75 238.75,593.25C253.25,607.75 270.25,619.167 289.75,627.5C309.25,635.833 330,640 352,640ZM1024,0L1024,512L896,512L704,704L704,512L640,512L640,448L768,448L768,549.5L869.5,448L960,448L960,64L320,64L320,179C309.333,180.333 298.583,182.083 287.75,184.25C276.917,186.417 266.333,189.333 256,193L256,0Z" fill="#000000" fill-opacity="1">
  </path>
</svg>