<!-- Exported by Character Map UWP -->
<svg height="100%" viewBox="64 448 896 128" width="100%" xmlns="http://www.w3.org/2000/svg" xmlns:xlink="http://www.w3.org/1999/xlink">
  <path d="M128,448C137,448 145.333,449.667 153,453C160.667,456.333 167.417,460.917 173.25,466.75C179.083,472.583 183.667,479.333 187,487C190.333,494.667 192,503 192,512C192,521 190.333,529.333 187,537C183.667,544.667 179.083,551.417 173.25,557.25C167.417,563.083 160.667,567.667 153,571C145.333,574.333 137,576 128,576C119,576 110.667,574.333 103,571C95.3333,567.667 88.5833,563.083 82.75,557.25C76.9167,551.417 72.3333,544.667 69,537C65.6667,529.333 64,521 64,512C64,503 65.6667,494.667 69,487C72.3333,479.333 76.9167,472.583 82.75,466.75C88.5833,460.917 95.3333,456.333 103,453C110.667,449.667 119,448 128,448ZM512,448C521,448 529.333,449.667 537,453C544.667,456.333 551.417,460.917 557.25,466.75C563.083,472.583 567.667,479.333 571,487C574.333,494.667 576,503 576,512C576,521 574.333,529.333 571,537C567.667,544.667 563.083,551.417 557.25,557.25C551.417,563.083 544.667,567.667 537,571C529.333,574.333 521,576 512,576C503,576 494.667,574.333 487,571C479.333,567.667 472.583,563.083 466.75,557.25C460.917,551.417 456.333,544.667 453,537C449.667,529.333 448,521 448,512C448,503 449.667,494.667 453,487C456.333,479.333 460.917,472.583 466.75,466.75C472.583,460.917 479.333,456.333 487,453C494.667,449.667 503,448 512,448ZM896,448C905,448 913.333,449.667 921,453C928.667,456.333 935.417,460.917 941.25,466.75C947.083,472.583 951.667,479.333 955,487C958.333,494.667 960,503 960,512C960,521 958.333,529.333 955,537C951.667,544.667 947.083,551.417 941.25,557.25C935.417,563.083 928.667,567.667 921,571C913.333,574.333 905,576 896,576C887,576 878.667,574.333 871,571C863.333,567.667 856.583,563.083 850.75,557.25C844.917,551.417 840.333,544.667 837,537C833.667,529.333 832,521 832,512C832,503 833.667,494.667 837,487C840.333,479.333 844.917,472.583 850.75,466.75C856.583,460.917 863.333,456.333 871,453C878.667,449.667 887,448 896,448Z" fill="#000000" fill-opacity="1">
  </path>
</svg>